<svg width="25" height="24" viewBox="0 0 25 24" fill="none" xmlns="http://www.w3.org/2000/svg">
<path d="M12.9809 7.87891C11.893 7.87891 10.8496 8.31108 10.0804 9.08036C9.31108 9.84964 8.87891 10.893 8.87891 11.9809C8.87891 13.0688 9.31108 14.1122 10.0804 14.8815C10.8496 15.6508 11.893 16.0829 12.9809 16.0829C14.0688 16.0829 15.1122 15.6508 15.8815 14.8815C16.6508 14.1122 17.0829 13.0688 17.0829 11.9809C17.0829 10.893 16.6508 9.84964 15.8815 9.08036C15.1122 8.31108 14.0688 7.87891 12.9809 7.87891ZM12.9809 14.6449C12.2742 14.6449 11.5963 14.3642 11.0966 13.8644C10.5968 13.3646 10.316 12.6868 10.316 11.98C10.316 11.2733 10.5968 10.5954 11.0966 10.0957C11.5963 9.59591 12.2742 9.31515 12.9809 9.31515C13.6877 9.31515 14.3655 9.59591 14.8653 10.0957C15.3651 10.5954 15.6458 11.2733 15.6458 11.98C15.6458 12.6868 15.3651 13.3646 14.8653 13.8644C14.3655 14.3642 13.6877 14.6449 12.9809 14.6449Z" fill="black"/>
<path d="M17.2454 8.6841C17.7735 8.6841 18.2017 8.25595 18.2017 7.72779C18.2017 7.19964 17.7735 6.77148 17.2454 6.77148C16.7172 6.77148 16.2891 7.19964 16.2891 7.72779C16.2891 8.25595 16.7172 8.6841 17.2454 8.6841Z" fill="black"/>
<path d="M20.552 6.75538C20.3466 6.22504 20.0328 5.74343 19.6306 5.34137C19.2284 4.93931 18.7466 4.62566 18.2162 4.42049C17.5956 4.1875 16.9398 4.06151 16.277 4.0479C15.4227 4.01065 15.1521 4 12.9858 4C10.8195 4 10.5418 4 9.69461 4.0479C9.03228 4.06082 8.37703 4.18683 7.75715 4.42049C7.2266 4.62542 6.74475 4.93898 6.3425 5.34108C5.94026 5.74317 5.62651 6.2249 5.42138 6.75538C5.18834 7.37601 5.06264 8.03179 5.04968 8.69461C5.01153 9.54802 5 9.81858 5 11.9858C5 14.1521 5 14.428 5.04968 15.277C5.06299 15.9406 5.18807 16.5953 5.42138 17.2171C5.62708 17.7474 5.94114 18.2289 6.34348 18.631C6.74582 19.033 7.2276 19.3467 7.75804 19.552C8.37674 19.7944 9.03227 19.9294 9.69638 19.9512C10.5507 19.9885 10.8212 20 12.9876 20C15.1539 20 15.4316 20 16.2788 19.9512C16.9415 19.9377 17.5972 19.8121 18.218 19.5795C18.7483 19.3739 19.2299 19.0599 19.632 18.6578C20.0342 18.2556 20.3481 17.774 20.5538 17.2437C20.7871 16.6228 20.9122 15.9681 20.9255 15.3045C20.9636 14.4511 20.9752 14.1805 20.9752 12.0133C20.9752 9.84609 20.9752 9.57108 20.9255 8.72211C20.9152 8.04992 20.7888 7.38456 20.552 6.75538ZM19.4715 15.2114C19.4658 15.7226 19.3725 16.2291 19.1956 16.7088C19.0624 17.0538 18.8584 17.367 18.5969 17.6285C18.3353 17.8899 18.0219 18.0936 17.6769 18.2267C17.2025 18.4027 16.7014 18.496 16.1954 18.5026C15.3526 18.5416 15.1149 18.5513 12.9539 18.5513C10.7911 18.5513 10.5702 18.5513 9.71147 18.5026C9.20575 18.4964 8.70488 18.403 8.23087 18.2267C7.88462 18.0945 7.56997 17.8911 7.30729 17.6296C7.0446 17.3681 6.83973 17.0544 6.70592 16.7088C6.53156 16.2342 6.43829 15.7337 6.43003 15.2282C6.39188 14.3855 6.38301 14.1477 6.38301 11.9867C6.38301 9.8248 6.38301 9.6039 6.43003 8.74429C6.43576 8.23333 6.52908 7.72714 6.70592 7.24773C6.97649 6.54779 7.53094 5.9969 8.23087 5.72899C8.70511 5.55346 9.20583 5.46016 9.71147 5.45309C10.5551 5.41495 10.792 5.4043 12.9539 5.4043C15.1158 5.4043 15.3375 5.4043 16.1954 5.45309C16.7014 5.45918 17.2026 5.55251 17.6769 5.72899C18.0219 5.8623 18.3352 6.06627 18.5968 6.32782C18.8583 6.58936 19.0623 6.9027 19.1956 7.24773C19.37 7.72229 19.4632 8.22281 19.4715 8.72832C19.5096 9.57197 19.5194 9.80883 19.5194 11.9707C19.5194 14.1317 19.5194 14.3642 19.4813 15.2122H19.4715V15.2114Z" fill="black"/>
</svg>
