<svg width="25" height="24" viewBox="0 0 25 24" fill="none" xmlns="http://www.w3.org/2000/svg">
<path d="M9.40872 19C15.9056 19 19.46 13.6119 19.46 8.94786C19.46 8.79635 19.46 8.64484 19.4531 8.49333C20.1453 7.99173 20.7426 7.37083 21.217 6.65972C20.5711 6.94512 19.8864 7.13339 19.1854 7.21841C19.924 6.77618 20.4771 6.0809 20.7418 5.2617C20.0475 5.67358 19.2875 5.96275 18.495 6.11652C18.1651 5.76407 17.7664 5.48311 17.3235 5.29106C16.8806 5.099 16.4029 4.99994 15.9202 5C14.9829 5.00068 14.0843 5.3733 13.4216 6.03603C12.7588 6.69876 12.3862 7.59741 12.3855 8.53465C12.3855 8.81012 12.42 9.07871 12.4751 9.3404C11.0701 9.26985 9.69561 8.9046 8.44094 8.26836C7.18627 7.63213 6.07942 6.73913 5.19228 5.64736C4.74144 6.42604 4.60381 7.34711 4.80734 8.22357C5.01086 9.10004 5.54029 9.86621 6.28814 10.3665C5.72779 10.3471 5.17987 10.1961 4.68868 9.92578V9.97399C4.68944 10.7895 4.97167 11.5797 5.48769 12.2112C6.00371 12.8426 6.72188 13.2766 7.52088 13.4398C7.21807 13.5233 6.90527 13.565 6.59116 13.5637C6.36303 13.5637 6.14265 13.5431 5.9283 13.5018C6.15353 14.204 6.59289 14.8182 7.18478 15.2582C7.77667 15.6982 8.49141 15.9419 9.2288 15.9552C7.9776 16.9387 6.4317 17.4724 4.84019 17.4703C4.55783 17.4703 4.27547 17.4565 4 17.4221C5.61557 18.453 7.49224 19.0005 9.40872 19Z" fill="black"/>
</svg>
