<svg width="25" height="24" viewBox="0 0 25 24" fill="none" xmlns="http://www.w3.org/2000/svg">
<path d="M21.2413 19.29L17.8413 15.9C18.9382 14.5025 19.5335 12.7767 19.5313 11C19.5313 9.41775 19.0621 7.87103 18.183 6.55544C17.304 5.23985 16.0545 4.21447 14.5927 3.60897C13.1309 3.00347 11.5224 2.84504 9.97053 3.15372C8.41868 3.4624 6.99322 4.22433 5.8744 5.34315C4.75558 6.46197 3.99365 7.88743 3.68497 9.43928C3.37629 10.9911 3.53472 12.5997 4.14022 14.0615C4.74572 15.5233 5.7711 16.7727 7.08669 17.6518C8.40228 18.5308 9.949 19 11.5313 19C13.3079 19.0022 15.0337 18.407 16.4313 17.31L19.8213 20.71C19.9142 20.8037 20.0248 20.8781 20.1467 20.9289C20.2685 20.9797 20.3992 21.0058 20.5313 21.0058C20.6633 21.0058 20.794 20.9797 20.9158 20.9289C21.0377 20.8781 21.1483 20.8037 21.2413 20.71C21.335 20.617 21.4094 20.5064 21.4601 20.3846C21.5109 20.2627 21.5371 20.132 21.5371 20C21.5371 19.868 21.5109 19.7373 21.4601 19.6154C21.4094 19.4936 21.335 19.383 21.2413 19.29ZM5.53125 11C5.53125 9.81332 5.88315 8.65328 6.54244 7.66658C7.20172 6.67989 8.1388 5.91085 9.23515 5.45673C10.3315 5.0026 11.5379 4.88378 12.7018 5.11529C13.8657 5.3468 14.9348 5.91825 15.7739 6.75736C16.613 7.59648 17.1845 8.66558 17.416 9.82946C17.6475 10.9933 17.5287 12.1997 17.0745 13.2961C16.6204 14.3925 15.8514 15.3295 14.8647 15.9888C13.878 16.6481 12.7179 17 11.5313 17C9.93995 17 8.41383 16.3679 7.28861 15.2426C6.16339 14.1174 5.53125 12.5913 5.53125 11Z" fill="#666564"/>
</svg>
